<svg width="740" height="667" viewBox="0 0 740 667" fill="none" xmlns="http://www.w3.org/2000/svg">
<path d="M561.73 43.2895L597.124 167.965C601.503 183.381 613.076 195.725 628.181 201.079L704.467 228.122C734.134 238.639 746.562 273.822 730.086 300.64L672.485 394.399C662.204 411.134 662.797 432.365 673.996 448.501L698.182 483.347C721.996 517.657 695.203 564.214 653.572 560.861L399.593 540.397C385.458 539.256 371.513 544.242 361.298 554.08L259.028 652.617C229.803 680.775 180.975 663.698 175.665 623.464L164.954 542.279C160.8 510.789 128.462 491.318 98.6865 502.378C60.4966 516.563 22.4906 481.088 34.0145 442.013L48.1219 394.181C53.8683 374.692 47.1153 353.673 31.0915 341.18L19.1811 331.893C-15.933 304.514 0.171877 248.309 44.4603 243.684L128.606 234.896C151.604 232.494 169.868 214.482 172.589 191.521L190.112 43.704C194.864 3.61633 243.041 -14.2056 272.739 13.1365L357.203 90.903C378.512 110.523 412.043 107.715 429.793 84.8294L475.051 26.4835C499.912 -5.5642 550.651 4.27698 561.73 43.2895Z" fill="#FFC700"/>
<path d="M105.156 314.673C103.09 300.587 99.8487 287.462 95.3363 275C87.9539 254.629 77.6422 242.185 64.6691 237.991C64.37 237.894 64.0677 237.801 63.7654 237.713C59.7174 236.532 56.2739 236.514 53.5285 237.664C47.8974 240.026 45.716 247.371 46.8565 253.111C48.1498 259.605 52.6902 265.221 56.9626 269.852C62.2291 275.564 68.0596 280.97 73.6876 286.2C80.9205 292.915 88.4026 299.855 94.8782 307.59C96.4426 309.459 97.9104 311.36 99.2909 313.28C109.843 338.949 121.248 374.895 119.911 408.027C119.625 415.101 118.792 420.919 117.814 425.528C115.589 412.287 107.409 391.551 81.1293 367.793C73.5349 356.602 65.3298 346.664 56.3456 337.755C40.9574 322.504 26.311 315.667 12.7926 317.428C12.481 317.468 12.1694 317.512 11.8577 317.565C7.69129 318.229 4.5719 319.687 2.58372 321.903C-1.49236 326.446 -0.323762 334.022 3.16334 338.718C7.11165 344.037 13.6184 347.166 19.4614 349.525C26.6662 352.433 34.2481 354.826 41.5745 357.144C50.9856 360.117 60.7177 363.19 69.8795 367.409C72.7309 368.721 75.4577 370.149 78.0629 371.663C78.066 371.666 78.066 371.666 78.0691 371.669C76.6138 371.579 74.9154 371.548 72.9366 371.616C64.7813 369.943 56.8442 369.005 48.9881 368.806C34.1858 368.432 23.6996 371.897 17.8005 379.108C17.6633 379.276 17.5293 379.441 17.3985 379.613C15.6378 381.894 14.7714 384.082 14.8182 386.116C14.921 390.286 19.0501 393.505 22.989 394.206C27.4453 395.001 32.1478 393.508 36.1584 391.941C41.1039 390.012 45.9965 387.647 50.7269 385.365C56.8006 382.433 63.0798 379.401 69.6147 377.204C70.241 376.995 70.8643 376.796 71.4875 376.606C79.8641 376.11 83.0364 377.456 83.1922 377.525C83.5942 377.731 84.0305 377.802 84.4512 377.777C99.7739 393.256 106.966 406.812 110.319 416.447C115.221 430.542 113.183 439.47 113.158 439.585C113.149 439.629 113.149 439.673 113.14 439.716C113.124 439.804 113.112 439.888 113.102 439.972C113.096 440.05 113.093 440.128 113.096 440.205C113.096 440.287 113.102 440.364 113.112 440.442C113.121 440.523 113.133 440.601 113.152 440.679C113.168 440.754 113.186 440.829 113.211 440.904C113.236 440.978 113.261 441.05 113.292 441.125C113.323 441.2 113.358 441.268 113.395 441.34C113.432 441.408 113.47 441.471 113.514 441.533C113.557 441.598 113.607 441.664 113.657 441.726C113.707 441.789 113.763 441.845 113.819 441.901C113.872 441.954 113.928 442.007 113.99 442.057C114.059 442.113 114.131 442.162 114.202 442.212C114.24 442.237 114.271 442.265 114.308 442.29C114.33 442.303 114.355 442.306 114.377 442.318C114.52 442.396 114.673 442.462 114.838 442.512C114.872 442.521 114.903 442.54 114.935 442.546C114.941 442.546 114.944 442.549 114.95 442.552C115.128 442.596 115.302 442.611 115.477 442.617C115.499 442.617 115.52 442.627 115.542 442.627C115.542 442.627 115.542 442.627 115.545 442.627C115.548 442.627 115.545 442.627 115.548 442.627C115.739 442.627 115.922 442.596 116.103 442.555C116.144 442.546 116.184 442.536 116.222 442.524C116.399 442.474 116.571 442.406 116.733 442.318C116.754 442.306 116.773 442.29 116.795 442.278C116.941 442.191 117.075 442.088 117.2 441.972C117.228 441.947 117.259 441.923 117.284 441.895C117.418 441.761 117.537 441.608 117.636 441.443C117.646 441.43 117.655 441.421 117.664 441.408C117.917 440.978 123.828 430.611 124.798 408.731C126.247 375.992 115.57 340.706 105.156 314.673Z" fill="#101010"/>
<path d="M63.3417 258.156C66.2107 258.156 68.5365 255.83 68.5365 252.961C68.5365 250.092 66.2107 247.767 63.3417 247.767C60.4727 247.767 58.1469 250.092 58.1469 252.961C58.1469 255.83 60.4727 258.156 63.3417 258.156Z" fill="white"/>
<path d="M20.4712 340.152C23.3403 340.152 25.6661 337.826 25.6661 334.957C25.6661 332.088 23.3403 329.762 20.4712 329.762C17.6022 329.762 15.2764 332.088 15.2764 334.957C15.2764 337.826 17.6022 340.152 20.4712 340.152Z" fill="white"/>
<path d="M27.5856 387.556C29.9762 387.556 31.9141 385.618 31.9141 383.228C31.9141 380.837 29.9762 378.899 27.5856 378.899C25.1951 378.899 23.2571 380.837 23.2571 383.228C23.2571 385.618 25.1951 387.556 27.5856 387.556Z" fill="white"/>
<path d="M482.757 534.547C482.707 534.547 482.661 534.547 482.614 534.544C481.258 534.501 480.196 533.37 480.239 532.014C480.283 530.658 481.405 529.586 482.77 529.639C482.788 529.639 482.807 529.639 482.826 529.639C485.926 529.639 506.768 522.463 530.645 508.346C550.966 496.333 577.364 476.99 587.707 453.07C596.816 432.004 591.468 411.168 571.814 391.124C567.638 401.19 563.063 410.573 558.162 419.034C539.078 451.969 517.447 467.111 495.615 462.82C476.718 459.109 465.054 447.65 462.773 430.561C459.616 406.908 475.474 379.311 498.878 367.731C512.331 361.074 538.959 354.58 569.966 382.551C581.156 353.551 589.062 319.484 592.088 285.807C594.65 257.306 593.388 231.867 588.645 211.316C586.504 213.615 584.279 215.7 581.967 217.573C570.676 226.713 557.956 230.185 544.16 227.891C521.545 224.133 506.547 210.284 504.038 190.851C501.766 173.247 510.364 155.88 524.481 149.554C531.539 146.391 539.548 146.22 547.647 149.068C556.666 152.237 565.725 159.018 574.575 169.221C581.487 177.192 586.965 187.925 590.904 200.898C594.949 195.251 598.844 188.28 602.431 179.701C612.039 156.725 616.657 127.083 614.787 100.414C612.833 72.5793 604.105 51.0989 590.836 41.479C589.739 40.6843 589.496 39.148 590.29 38.0511C591.085 36.9542 592.618 36.708 593.718 37.5057C608.377 48.1353 617.598 70.3543 619.683 100.071C621.606 127.469 616.85 157.943 606.959 181.593C602.839 191.449 598.015 199.866 592.543 206.769C598.106 228.489 599.717 255.701 596.972 286.246C593.843 321.071 585.547 356.337 573.808 386.179C574.023 386.391 574.238 386.603 574.453 386.818C596.351 408.681 602.325 431.63 592.21 455.017C581.34 480.15 554.089 500.184 533.141 512.568C510.598 525.9 488.077 534.547 482.757 534.547ZM523.15 366.914C513.939 366.914 506.372 369.501 501.056 372.128C479.781 382.654 464.789 408.575 467.64 429.909C469.622 444.752 479.893 454.727 496.565 458.003C522.614 463.113 543.68 434.241 553.92 416.572C559.012 407.784 563.743 397.983 568.034 387.435C551.091 371.654 535.618 366.914 523.15 366.914ZM536.41 151.91C532.982 151.91 529.663 152.611 526.491 154.035C514.5 159.411 506.939 174.971 508.909 190.228C512.103 214.974 535.192 221.428 544.967 223.055C555.142 224.747 571.898 223.762 587.215 205.65C583.425 191.873 577.937 180.592 570.867 172.44C559.156 158.931 547.245 151.91 536.41 151.91Z" fill="#101010"/>
<path d="M56.6449 461.393C56.6449 461.384 56.6449 461.371 56.6449 461.362V461.237H56.648C56.6698 454.176 61.232 447.124 70.3689 441.732L437.459 226.607C455.829 215.766 485.746 215.772 504.234 226.616L663.71 320.201C673.015 325.661 677.655 332.831 677.633 339.989H677.636L677.564 356.926C677.543 363.994 672.971 371.049 663.847 376.437L296.756 591.563C278.358 602.417 248.47 602.398 229.981 591.55L70.506 497.962C61.2009 492.503 56.5483 485.335 56.5701 478.174L56.6449 461.393Z" fill="#101010"/>
<path d="M233.238 569.387L69.9669 473.575C59.9668 467.707 59.9699 453.041 69.9731 447.177L440.233 230.069C458.806 219.178 481.682 219.181 500.252 230.076L525.531 244.906C526.036 245.202 526.45 245.629 526.737 246.143L538.644 267.627C539.059 268.374 539.663 268.995 540.393 269.422L590.1 298.599C590.624 298.908 591.203 299.101 591.805 299.173L623.41 302.928C624.217 303.024 624.996 303.286 625.7 303.697L666.823 327.827C675.539 332.94 675.536 345.723 666.82 350.834L294.08 569.397C275.254 580.438 252.06 580.431 233.238 569.387Z" fill="white"/>
<path d="M555.251 263.451L588.48 282.946C590.309 284.021 590.508 285.645 588.922 286.573C587.336 287.502 584.569 287.387 582.736 286.312L549.508 266.816C547.678 265.741 547.479 264.118 549.065 263.189C550.655 262.26 553.422 262.376 555.251 263.451ZM599.842 404.39C600.16 403.44 600.639 402.511 601.228 401.692C601.898 400.763 602.709 399.974 603.575 399.467L634.083 381.576C635.227 380.909 636.262 380.847 637.009 381.28L640.029 383.044C639.281 382.608 638.25 382.67 637.106 383.34L606.598 401.23C605.731 401.738 604.918 402.524 604.251 403.455C603.662 404.275 603.182 405.204 602.864 406.154C602.596 406.952 602.447 407.765 602.447 408.535V409.878C602.447 411.227 602.921 412.181 603.681 412.627L600.661 410.866C599.898 410.423 599.427 409.47 599.427 408.12V406.777C599.424 406.004 599.574 405.191 599.842 404.39Z" fill="white"/>
<path d="M606.594 401.227L637.103 383.337C639.409 381.994 641.254 383.091 641.251 385.805V387.148C641.251 389.834 639.406 393.109 637.1 394.452L606.591 412.343C604.31 413.67 602.444 412.561 602.444 409.875V408.532C602.444 405.817 604.317 402.558 606.594 401.227Z" fill="#101010"/>
<path d="M551.365 432.957C551.683 432.007 552.163 431.078 552.752 430.258C553.419 429.33 554.232 428.541 555.098 428.033L585.607 410.143C586.75 409.476 587.782 409.411 588.53 409.847L591.549 411.611C590.801 411.174 589.77 411.237 588.626 411.907L558.118 429.797C557.252 430.305 556.438 431.09 555.771 432.022C555.182 432.842 554.703 433.77 554.385 434.721C554.117 435.519 553.967 436.332 553.967 437.102V438.445C553.967 439.794 554.441 440.748 555.201 441.193L552.181 439.433C551.418 438.99 550.947 438.037 550.947 436.687V435.344C550.951 434.568 551.1 433.755 551.365 432.957Z" fill="white"/>
<path d="M558.121 429.794L588.629 411.904C590.935 410.56 592.78 411.657 592.777 414.372V415.715C592.777 418.401 590.932 421.676 588.626 423.019L558.118 440.91C555.837 442.237 553.97 441.128 553.97 438.442V437.099C553.97 434.384 555.84 431.125 558.121 429.794Z" fill="#101010"/>
<path d="M594.746 290.001C596.981 288.683 600.614 288.683 602.861 290.001C605.108 291.323 605.117 293.457 602.886 294.775C600.652 296.094 597.021 296.097 594.771 294.775C592.525 293.46 592.512 291.32 594.746 290.001ZM169.099 502.038C169.351 501.574 170.189 501.259 171.289 501.225C174.73 501.116 179.145 503.503 180.956 506.436C181.545 507.392 181.754 508.284 181.498 508.757C181.246 509.225 180.407 509.536 179.311 509.57C175.929 509.686 171.423 507.243 169.641 504.357C169.052 503.403 168.843 502.515 169.099 502.038Z" fill="white"/>
<path d="M165.465 506.934C168.111 511.225 174.032 514.482 179.092 514.482C179.217 514.482 179.345 514.479 179.469 514.475C182.396 514.382 184.714 513.145 185.823 511.082C186.939 509.01 186.687 506.376 185.135 503.858C183.424 501.085 180.326 498.745 176.989 497.436C175.041 496.672 173.013 496.261 171.133 496.32C168.204 496.414 165.886 497.651 164.776 499.717C163.664 501.789 163.913 504.419 165.465 506.934ZM169.641 504.36C169.052 503.403 168.843 502.515 169.098 502.042C169.351 501.577 170.189 501.262 171.289 501.228C174.73 501.119 179.145 503.506 180.956 506.439C181.545 507.395 181.754 508.287 181.498 508.76C181.246 509.228 180.407 509.539 179.31 509.574C175.929 509.689 171.423 507.246 169.641 504.36ZM147.839 235.763C147.783 235.763 147.73 235.763 147.677 235.76C143.52 235.632 139.469 230.689 134.929 220.203C126.995 201.87 124.545 180.091 128.032 158.878C129.587 149.426 132.27 140.436 135.857 132.402C128.213 110.869 116.209 84.8418 97.8138 61.2516C84.2175 43.8192 72.5471 36.5428 63.1204 39.6279C38.7231 47.6086 31.1599 123.156 30.3061 151.592C30.2656 152.948 29.1094 153.986 27.7788 153.97C26.4232 153.929 25.3606 152.798 25.4011 151.443C25.4073 151.181 26.2394 124.967 30.9169 97.8397C37.3239 60.6814 47.645 39.525 61.5934 34.9628C73.1922 31.1672 86.6825 38.9953 101.684 58.232C119.201 80.694 131.027 105.288 138.855 126.294C142.208 120.071 146.141 114.596 150.519 110.155C162.398 98.1046 176.531 94.4773 190.398 99.8965C193.234 84.6953 198.94 70.8871 208.245 63.8974C209.326 63.084 210.866 63.3022 211.679 64.3866C212.493 65.4711 212.274 67.0074 211.19 67.8207C203.705 73.4425 197.94 85.8203 195.069 101.925C212.941 110.255 223.297 121.819 224.372 134.771C225.294 145.924 219.052 157.121 208.077 163.992C203.424 166.906 198.781 165.706 195.344 160.701C189.018 151.489 186.347 127.317 189.582 104.864C189.491 104.826 189.401 104.789 189.314 104.752C180.716 101.177 167.612 99.8124 154.016 113.605C149.104 118.585 144.723 125.101 141.149 132.667C145.181 144.272 147.955 154.494 149.787 162.259C156.929 192.512 158.447 221.693 153.399 231.649C151.682 235.024 149.46 235.763 147.839 235.763ZM138.263 139.464C129.675 162.131 128.017 191.882 139.432 218.259C144.782 230.624 147.796 230.858 147.824 230.858C148.017 230.851 148.481 230.481 149.017 229.424C152.847 221.87 152.744 196.158 145.007 163.384C143.483 156.927 141.298 148.735 138.263 139.464ZM194.284 106.983C194.016 108.974 193.792 111.012 193.611 113.091C191.978 131.816 194.409 150.67 199.389 157.921C201.801 161.437 203.739 160.919 205.475 159.832C214.889 153.939 220.255 144.49 219.485 135.176C218.585 124.35 209.697 114.459 194.284 106.983ZM273.042 457.049C271.424 454.584 267.841 450.969 263.889 448.214C252.2 440.068 238.52 440.015 227.712 447.544C215.705 455.911 217.94 465.612 228.339 472.861C232.979 476.096 237.635 478.003 241.34 479.134L234.319 487.741C231.131 486.965 225.369 484.587 219.143 480.477L211.639 485.703L204.007 480.384L211.932 474.861C210.501 473.518 209.217 472.138 208.099 470.729L199.124 476.981L191.492 471.661L203.745 463.122C200.601 454.356 203.62 445.16 214.68 437.454C224.686 430.483 237.469 427.675 250.698 430.411L263.683 421.364L271.315 426.684L261.175 433.749C263.079 434.571 264.977 435.515 266.868 436.584L276.195 430.087L283.827 435.406L274.687 441.773C280.122 445.924 283.428 449.66 284.541 451.789L273.042 457.049Z" fill="#101010"/>
<path d="M613.438 343.489C608.857 363.583 606.46 384.169 606.747 405.038C606.891 415.621 607.934 426.908 614.454 435.248C621.574 444.353 633.962 447.968 645.51 447.501C673.728 446.363 697.589 424.026 708.942 398.167C720.295 372.308 721.544 343.305 722.361 315.075C723.003 292.85 723.495 270.328 728.864 248.633C731.167 239.331 748.123 201.77 735.175 195.597C717.369 186.713 675.698 208.947 653.653 245.838C635.495 276.224 621.269 309.132 613.438 343.489Z" fill="#101010"/>
<path d="M706.06 227.467C704.807 226.769 703.224 227.224 702.529 228.477C672.597 282.419 657.985 339.064 650.995 377.085C650.958 377.294 650.92 377.497 650.883 377.703C646.508 355.792 640.792 309.098 660.288 269.783C660.889 268.568 660.394 267.097 659.182 266.495C657.966 265.894 656.495 266.389 655.894 267.602C641.643 296.34 640.571 328.543 642.182 350.498C643.656 370.585 647.477 385.652 648.745 390.23C643.323 424.294 642.918 447.202 642.915 447.46C642.893 448.894 644.04 450.075 645.473 450.097C645.486 450.097 645.498 450.097 645.511 450.097C646.925 450.097 648.084 448.959 648.106 447.538C648.113 447.04 648.564 424.905 653.859 391.592C653.903 391.43 653.931 391.261 653.94 391.09C655.9 378.831 658.518 365.079 662.005 350.342C668.608 349.357 687.889 343.202 699.97 305.312C700.382 304.018 699.668 302.641 698.378 302.23C697.088 301.815 695.707 302.532 695.296 303.822C685.215 335.433 670.051 343.14 663.292 345.016C671.983 309.858 685.632 269.627 707.066 231.001C707.764 229.745 707.312 228.165 706.06 227.467Z" fill="white"/>
<path d="M353.956 510.181C331.313 509.882 309.471 515.055 292.447 524.741C275.572 534.342 265.329 547.305 263.453 561.354L263.45 561.36L261.917 579.378C261.736 580.394 261.592 581.413 261.493 582.441C259.984 597.979 270.617 612.47 286.716 623.246C302.035 633.501 323.067 638.749 345.941 638.749C371.101 638.749 389.188 632.074 406.455 622.249C424.601 611.921 432.825 600.276 434.333 584.741C434.433 583.716 434.489 582.694 434.505 581.675L434.763 565.302C434.723 565.146 434.676 564.993 434.63 564.841C435.474 554.728 431.868 544.853 424.171 536.258C409.899 520.322 383.65 510.574 353.956 510.181ZM277.75 542.952C278.046 542.609 278.342 542.27 278.651 541.93C278.342 542.266 278.046 542.609 277.75 542.952ZM279.452 541.076C279.767 540.746 280.084 540.415 280.415 540.088C280.084 540.415 279.767 540.746 279.452 541.076ZM273.359 548.96C273.612 548.546 273.861 548.128 274.129 547.717C273.861 548.128 273.612 548.543 273.359 548.96ZM274.712 546.869C274.971 546.492 275.229 546.115 275.503 545.744C275.229 546.118 274.974 546.495 274.712 546.869ZM276.17 544.881C276.448 544.526 276.722 544.167 277.012 543.815C276.722 544.167 276.448 544.523 276.17 544.881ZM281.275 539.253C281.611 538.932 281.951 538.614 282.297 538.299C281.948 538.614 281.608 538.932 281.275 539.253ZM283.213 537.483C283.568 537.171 283.933 536.863 284.298 536.557C283.933 536.863 283.572 537.171 283.213 537.483ZM424.517 545.292C424.551 545.348 424.589 545.401 424.623 545.457C424.592 545.404 424.555 545.348 424.517 545.292ZM425.736 547.374C425.751 547.402 425.764 547.43 425.779 547.458C425.764 547.43 425.751 547.402 425.736 547.374ZM335.881 516.355C336.536 516.274 337.193 516.202 337.854 516.133C337.193 516.205 336.536 516.277 335.881 516.355ZM325.598 518.047C326.208 517.919 326.822 517.798 327.442 517.679C326.822 517.798 326.208 517.919 325.598 518.047ZM328.972 517.396C329.599 517.283 330.225 517.177 330.855 517.075C330.225 517.18 329.596 517.283 328.972 517.396ZM332.4 516.831C333.039 516.735 333.681 516.648 334.323 516.56C333.681 516.648 333.039 516.735 332.4 516.831ZM353.887 515.376C352.659 515.361 351.434 515.364 350.216 515.379C351.434 515.361 352.659 515.361 353.887 515.376ZM348.991 515.41C348.184 515.429 347.377 515.448 346.576 515.479C347.377 515.448 348.184 515.429 348.991 515.41ZM345.133 515.557C344.41 515.594 343.687 515.632 342.971 515.678C343.687 515.629 344.41 515.594 345.133 515.557ZM341.45 515.797C340.768 515.85 340.082 515.906 339.403 515.971C340.082 515.906 340.768 515.853 341.45 515.797ZM324.086 518.368C323.478 518.502 322.877 518.639 322.279 518.782C322.877 518.642 323.482 518.502 324.086 518.368ZM320.795 519.141C320.197 519.29 319.605 519.446 319.016 519.602C319.605 519.446 320.197 519.29 320.795 519.141ZM317.573 519.991C316.981 520.156 316.395 520.331 315.809 520.506C316.392 520.331 316.978 520.156 317.573 519.991ZM314.416 520.923C313.824 521.107 313.241 521.3 312.656 521.493C313.241 521.3 313.824 521.107 314.416 520.923ZM311.334 521.93C310.733 522.135 310.144 522.353 309.552 522.568C310.141 522.35 310.733 522.135 311.334 521.93ZM308.327 523.011C307.688 523.251 307.062 523.503 306.432 523.756C307.059 523.503 307.685 523.251 308.327 523.011ZM305.398 524.164C304.535 524.519 303.681 524.887 302.839 525.264C303.681 524.89 304.532 524.522 305.398 524.164ZM302.55 525.389C301.618 525.806 300.705 526.236 299.804 526.679C300.705 526.24 301.621 525.806 302.55 525.389ZM285.267 535.766C285.644 535.464 286.03 535.164 286.42 534.865C286.033 535.164 285.647 535.464 285.267 535.766ZM287.436 534.102C287.838 533.806 288.246 533.516 288.657 533.226C288.246 533.519 287.835 533.809 287.436 534.102ZM289.707 532.497C290.134 532.207 290.571 531.924 291.007 531.643C290.571 531.927 290.134 532.21 289.707 532.497ZM292.082 530.951C292.537 530.668 293.004 530.387 293.472 530.11C293.008 530.387 292.54 530.665 292.082 530.951ZM294.563 529.465C295.058 529.178 295.566 528.901 296.074 528.623C295.566 528.901 295.058 529.178 294.563 529.465ZM297.137 528.038C297.707 527.735 298.29 527.442 298.869 527.153C298.287 527.445 297.704 527.738 297.137 528.038ZM272.892 549.727C272.574 550.278 272.281 550.836 271.995 551.397C272.281 550.839 272.574 550.278 272.892 549.727ZM426.795 549.521C426.758 549.44 426.724 549.362 426.686 549.281C426.724 549.359 426.758 549.44 426.795 549.521ZM427.59 551.425C427.587 551.416 427.584 551.41 427.581 551.4C427.584 551.406 427.587 551.416 427.59 551.425ZM423.461 543.703C423.346 543.538 423.227 543.373 423.106 543.208C423.227 543.373 423.346 543.538 423.461 543.703ZM422.133 541.914C422.002 541.749 421.878 541.584 421.744 541.419C421.875 541.584 422.002 541.749 422.133 541.914Z" fill="#101010"/>
<path d="M420.307 539.724C406.985 524.85 382.155 515.747 353.887 515.376C313.351 514.843 277.937 532.584 269.994 556.103C269.221 558.393 268.707 560.737 268.476 563.127C267.622 571.921 270.779 580.593 277.604 588.213C290.926 603.087 315.756 612.189 344.024 612.56C388.506 613.146 426.82 591.737 429.435 564.809C430.285 556.018 427.129 547.343 420.307 539.724Z" fill="white"/>
<path d="M399.624 546.23C390.353 535.878 372.32 529.287 352.562 529.025C323.83 528.648 298.741 541.132 293.151 557.68C292.612 559.278 292.253 560.914 292.091 562.578C291.499 568.671 293.699 574.691 298.448 579.995C307.719 590.347 325.753 596.938 345.51 597.2C377.019 597.614 404.146 582.569 405.978 563.644C406.57 557.558 404.374 551.534 399.624 546.23Z" fill="white"/>
<path d="M352.631 523.834C336.277 523.619 320.487 527.358 308.177 534.364C295.507 541.575 287.959 551.416 286.925 562.08C286.189 569.655 288.838 577.05 294.581 583.464C304.946 595.034 323.961 602.114 345.445 602.395C361.799 602.61 377.589 598.87 389.899 591.865C400.148 586.031 407.047 578.477 409.855 570.157C410.519 568.194 410.955 566.187 411.151 564.149C411.887 556.573 409.238 549.178 403.495 542.765C393.127 531.194 374.112 524.117 352.631 523.834ZM345.51 597.203C325.753 596.941 307.719 590.35 298.449 579.998C293.699 574.694 291.502 568.674 292.091 562.581C292.253 560.914 292.612 559.281 293.151 557.683C298.738 541.135 323.827 528.648 352.563 529.029C372.32 529.287 390.354 535.881 399.624 546.234C404.374 551.534 406.571 557.558 405.982 563.65C404.146 582.572 377.019 597.618 345.51 597.203Z" fill="#101010"/>
<path d="M349.365 548.758L349.203 548.751C348.218 541.874 344.295 538.546 339.465 538.327C334.557 538.103 330.284 540.967 327.486 545.065C325.7 547.477 324.388 550.144 323.307 553.51L315.049 553.133L313.862 559.474L321.674 559.83C321.481 560.733 321.294 561.681 321.107 562.672C320.833 564.13 320.58 565.61 320.35 567.075L312.506 566.72L311.319 573.055L319.471 573.426C319.147 576.218 318.957 578.643 318.944 580.294L372.236 582.719C372.775 581.042 373.429 578.758 374.118 575.913L381.21 576.237L382.398 569.901L375.501 569.587C375.601 569.082 375.701 568.571 375.797 568.044C376.178 566.009 376.477 564.115 376.707 562.335L383.753 562.656L384.941 556.315L377.25 555.966C377.415 550.73 376.72 546.922 375.311 544.186C373.273 540.316 369.877 537.645 364.968 537.421C357.963 537.097 352.344 541.967 349.365 548.758ZM329.596 567.197C329.649 566.031 329.808 564.33 330.359 561.388C331.512 555.233 334.335 551.852 338.443 552.039C342.466 552.223 344.407 556.177 343.07 563.314L342.235 567.773L329.596 567.197ZM367.449 563.613C367.016 565.931 366.714 567.536 366.302 568.867L351.004 568.172L351.874 563.535C353.142 556.76 356.336 551.416 361.812 551.665C367.53 551.924 368.602 557.458 367.449 563.613Z" fill="#101010"/>
<path d="M338.365 482.029C315.722 481.73 293.88 486.903 276.856 496.588C259.982 506.189 249.738 519.153 247.862 533.201L247.859 533.207L246.326 551.226C246.145 552.242 246.002 553.261 245.902 554.289C244.394 569.827 255.027 584.317 271.125 595.093C286.445 605.349 307.477 610.597 330.35 610.597C355.511 610.597 373.598 603.922 390.865 594.096C409.011 583.769 417.235 572.123 418.743 556.589C418.843 555.56 418.899 554.541 418.914 553.522L419.173 537.15C419.133 536.994 419.086 536.841 419.039 536.688C419.884 526.576 416.278 516.701 408.581 508.106C394.308 492.169 368.06 482.422 338.365 482.029ZM262.16 514.8C262.456 514.457 262.752 514.117 263.06 513.777C262.752 514.114 262.456 514.457 262.16 514.8ZM263.861 512.927C264.176 512.596 264.494 512.266 264.824 511.939C264.494 512.263 264.176 512.593 263.861 512.927ZM257.769 520.808C258.021 520.393 258.271 519.976 258.539 519.564C258.271 519.976 258.021 520.39 257.769 520.808ZM259.121 518.717C259.38 518.34 259.639 517.963 259.913 517.592C259.639 517.966 259.383 518.343 259.121 518.717ZM260.58 516.729C260.857 516.373 261.131 516.015 261.421 515.663C261.131 516.015 260.857 516.37 260.58 516.729ZM265.684 511.101C266.021 510.78 266.361 510.462 266.707 510.147C266.357 510.462 266.018 510.78 265.684 511.101ZM267.623 509.331C267.978 509.019 268.343 508.71 268.707 508.405C268.343 508.71 267.981 509.019 267.623 509.331ZM408.927 517.14C408.961 517.196 408.998 517.249 409.033 517.305C409.002 517.252 408.964 517.196 408.927 517.14ZM410.145 519.222C410.161 519.25 410.173 519.278 410.189 519.306C410.173 519.278 410.161 519.25 410.145 519.222ZM320.291 488.205C320.945 488.124 321.603 488.053 322.263 487.984C321.603 488.053 320.945 488.124 320.291 488.205ZM310.007 489.894C310.618 489.767 311.232 489.645 311.852 489.527C311.232 489.645 310.618 489.767 310.007 489.894ZM313.382 489.243C314.008 489.131 314.635 489.025 315.264 488.922C314.635 489.028 314.005 489.134 313.382 489.243ZM316.81 488.679C317.449 488.582 318.091 488.495 318.733 488.408C318.091 488.495 317.449 488.582 316.81 488.679ZM338.297 487.224C337.069 487.208 335.844 487.211 334.626 487.227C335.844 487.208 337.069 487.208 338.297 487.224ZM333.401 487.258C332.594 487.277 331.787 487.295 330.986 487.327C331.787 487.295 332.594 487.277 333.401 487.258ZM329.543 487.405C328.82 487.442 328.097 487.479 327.38 487.526C328.097 487.476 328.82 487.442 329.543 487.405ZM325.86 487.644C325.177 487.697 324.491 487.754 323.812 487.819C324.491 487.754 325.177 487.701 325.86 487.644ZM308.496 490.215C307.888 490.349 307.287 490.486 306.688 490.63C307.287 490.49 307.891 490.349 308.496 490.215ZM305.205 490.988C304.607 491.138 304.014 491.294 303.425 491.449C304.014 491.294 304.607 491.138 305.205 490.988ZM301.983 491.839C301.391 492.004 300.805 492.179 300.219 492.353C300.802 492.179 301.387 492.004 301.983 491.839ZM298.826 492.771C298.234 492.955 297.651 493.148 297.065 493.341C297.651 493.148 298.234 492.955 298.826 492.771ZM295.744 493.777C295.142 493.983 294.553 494.201 293.961 494.416C294.55 494.198 295.142 493.983 295.744 493.777ZM292.737 494.859C292.098 495.099 291.471 495.351 290.842 495.603C291.468 495.351 292.095 495.099 292.737 494.859ZM289.807 496.012C288.944 496.367 288.09 496.735 287.249 497.112C288.09 496.738 288.941 496.37 289.807 496.012ZM286.959 497.236C286.027 497.654 285.114 498.084 284.214 498.526C285.114 498.087 286.03 497.654 286.959 497.236ZM269.676 507.614C270.053 507.311 270.44 507.012 270.829 506.713C270.443 507.012 270.057 507.311 269.676 507.614ZM271.845 505.949C272.247 505.653 272.655 505.364 273.067 505.074C272.655 505.367 272.244 505.657 271.845 505.949ZM274.117 504.345C274.544 504.055 274.98 503.771 275.416 503.491C274.98 503.774 274.544 504.058 274.117 504.345ZM276.492 502.799C276.947 502.515 277.414 502.235 277.881 501.958C277.417 502.235 276.95 502.512 276.492 502.799ZM278.972 501.312C279.468 501.026 279.976 500.748 280.484 500.471C279.976 500.748 279.468 501.026 278.972 501.312ZM281.546 499.885C282.116 499.583 282.699 499.29 283.279 499C282.696 499.293 282.113 499.586 281.546 499.885ZM257.302 521.574C256.984 522.126 256.691 522.684 256.404 523.245C256.691 522.687 256.984 522.126 257.302 521.574ZM411.205 521.369C411.167 521.288 411.133 521.21 411.096 521.129C411.133 521.207 411.167 521.288 411.205 521.369ZM411.999 523.273C411.996 523.263 411.993 523.257 411.99 523.248C411.993 523.257 411.996 523.263 411.999 523.273ZM407.87 515.551C407.755 515.385 407.637 515.22 407.515 515.055C407.637 515.22 407.755 515.385 407.87 515.551ZM406.543 513.762C406.412 513.597 406.287 513.432 406.153 513.266C406.284 513.432 406.412 513.597 406.543 513.762Z" fill="#101010"/>
<path d="M404.717 511.571C391.395 496.697 366.564 487.595 338.296 487.224C297.76 486.691 262.347 504.432 254.403 527.95C253.631 530.241 253.116 532.584 252.886 534.974C252.032 543.768 255.189 552.441 262.013 560.06C275.335 574.934 300.166 584.037 328.433 584.408C372.915 584.994 411.23 563.585 413.844 536.657C414.695 527.866 411.538 519.19 404.717 511.571Z" fill="white"/>
<path d="M384.034 518.078C374.763 507.726 356.729 501.135 336.972 500.873C308.24 500.496 283.151 512.98 277.56 529.527C277.021 531.126 276.663 532.762 276.501 534.426C275.909 540.518 278.109 546.539 282.858 551.843C292.129 562.195 310.163 568.786 329.92 569.048C361.429 569.462 388.556 554.417 390.388 535.492C390.98 529.406 388.783 523.382 384.034 518.078Z" fill="white"/>
<path d="M337.041 495.681C320.686 495.466 304.896 499.206 292.587 506.211C279.916 513.422 272.369 523.263 271.334 533.927C270.599 541.503 273.247 548.898 278.991 555.311C289.355 566.882 308.371 573.962 329.855 574.243C346.209 574.458 361.999 570.718 374.308 563.713C384.557 557.879 391.457 550.325 394.265 542.005C394.928 540.041 395.365 538.035 395.561 535.997C396.296 528.421 393.648 521.026 387.904 514.613C377.537 503.042 358.521 495.965 337.041 495.681ZM329.92 569.051C310.163 568.789 292.129 562.198 282.858 551.846C278.109 546.542 275.912 540.521 276.501 534.429C276.663 532.762 277.021 531.129 277.56 529.53C283.148 512.983 308.237 500.496 336.972 500.876C356.729 501.135 374.763 507.729 384.034 518.081C388.783 523.382 390.98 529.406 390.391 535.498C388.556 554.42 361.429 569.465 329.92 569.051Z" fill="#101010"/>
<path d="M333.775 520.605L333.613 520.599C332.628 513.721 328.705 510.393 323.874 510.175C318.966 509.951 314.694 512.815 311.895 516.912C310.11 519.324 308.798 521.992 307.717 525.358L299.458 524.98L298.271 531.322L306.084 531.677C305.89 532.581 305.703 533.528 305.516 534.519C305.242 535.978 304.99 537.458 304.759 538.923L296.916 538.567L295.728 544.903L303.88 545.274C303.556 548.066 303.366 550.49 303.354 552.142L356.645 554.566C357.184 552.89 357.839 550.606 358.527 547.76L365.62 548.085L366.807 541.749L359.911 541.434C360.011 540.93 360.11 540.418 360.207 539.892C360.587 537.857 360.886 535.962 361.117 534.183L368.163 534.504L369.35 528.162L361.659 527.813C361.824 522.578 361.129 518.77 359.721 516.034C357.683 512.163 354.286 509.493 349.378 509.268C342.373 508.944 336.754 513.815 333.775 520.605ZM314.005 539.044C314.058 537.879 314.217 536.177 314.769 533.235C315.922 527.081 318.745 523.7 322.852 523.887C326.875 524.071 328.817 528.025 327.48 535.161L326.645 539.621L314.005 539.044ZM351.858 535.461C351.425 537.779 351.123 539.387 350.712 540.714L335.414 540.02L336.283 535.383C337.552 528.608 340.746 523.263 346.221 523.513C351.939 523.771 353.012 529.306 351.858 535.461Z" fill="#101010"/>
<path d="M375.243 447.66C352.6 447.36 330.758 452.533 313.734 462.219C296.859 471.82 286.616 484.784 284.74 498.832L284.737 498.838L283.204 516.856C283.023 517.872 282.88 518.891 282.78 519.92C281.272 535.457 291.904 549.948 308.003 560.724C323.323 570.98 344.354 576.228 367.228 576.228C392.388 576.228 410.475 569.552 427.743 559.727C445.889 549.4 454.112 537.754 455.621 522.219C455.72 521.191 455.777 520.172 455.792 519.153L456.051 502.78C456.01 502.624 455.963 502.472 455.917 502.319C456.761 492.207 453.156 482.331 445.459 473.737C431.189 457.8 404.938 448.052 375.243 447.66ZM299.041 480.43C299.337 480.088 299.633 479.745 299.941 479.408C299.63 479.745 299.334 480.088 299.041 480.43ZM300.739 478.554C301.054 478.224 301.372 477.894 301.702 477.566C301.375 477.894 301.057 478.224 300.739 478.554ZM294.65 486.435C294.902 486.021 295.152 485.603 295.42 485.192C295.148 485.603 294.902 486.021 294.65 486.435ZM296.002 484.347C296.261 483.97 296.52 483.593 296.794 483.223C296.52 483.593 296.261 483.97 296.002 484.347ZM297.461 482.356C297.738 482.001 298.012 481.643 298.302 481.29C298.012 481.646 297.735 482.001 297.461 482.356ZM302.562 476.731C302.899 476.41 303.238 476.092 303.584 475.778C303.238 476.092 302.899 476.41 302.562 476.731ZM304.503 474.961C304.859 474.65 305.223 474.341 305.588 474.036C305.223 474.341 304.859 474.65 304.503 474.961ZM445.808 482.771C445.842 482.827 445.879 482.88 445.914 482.936C445.879 482.88 445.842 482.827 445.808 482.771ZM447.026 484.852C447.042 484.88 447.054 484.908 447.07 484.936C447.054 484.905 447.039 484.877 447.026 484.852ZM357.172 453.833C357.826 453.752 358.484 453.68 359.144 453.612C358.484 453.683 357.826 453.752 357.172 453.833ZM346.885 455.525C347.496 455.397 348.109 455.276 348.73 455.157C348.113 455.276 347.499 455.397 346.885 455.525ZM350.26 454.874C350.886 454.762 351.512 454.656 352.142 454.553C351.512 454.656 350.886 454.762 350.26 454.874ZM353.691 454.31C354.33 454.213 354.971 454.126 355.613 454.039C354.968 454.126 354.326 454.213 353.691 454.31ZM375.174 452.854C373.946 452.839 372.722 452.842 371.503 452.858C372.725 452.839 373.946 452.836 375.174 452.854ZM370.279 452.889C369.471 452.907 368.664 452.926 367.863 452.957C368.667 452.926 369.471 452.907 370.279 452.889ZM366.424 453.032C365.701 453.069 364.978 453.107 364.261 453.154C364.978 453.107 365.701 453.069 366.424 453.032ZM362.74 453.275C362.058 453.328 361.372 453.384 360.693 453.45C361.372 453.384 362.055 453.331 362.74 453.275ZM345.376 455.846C344.769 455.98 344.167 456.117 343.569 456.261C344.167 456.117 344.769 455.98 345.376 455.846ZM342.086 456.619C341.487 456.769 340.895 456.924 340.306 457.08C340.895 456.921 341.487 456.765 342.086 456.619ZM338.86 457.47C338.268 457.635 337.682 457.809 337.097 457.984C337.682 457.809 338.268 457.635 338.86 457.47ZM335.707 458.398C335.115 458.582 334.532 458.775 333.946 458.969C334.529 458.775 335.115 458.585 335.707 458.398ZM332.622 459.408C332.02 459.614 331.431 459.832 330.839 460.047C331.431 459.829 332.023 459.614 332.622 459.408ZM329.614 460.489C328.976 460.729 328.349 460.982 327.72 461.234C328.349 460.982 328.976 460.729 329.614 460.489ZM326.685 461.642C325.822 461.998 324.968 462.365 324.127 462.742C324.971 462.365 325.822 461.998 326.685 461.642ZM323.84 462.867C322.908 463.285 321.995 463.715 321.095 464.157C321.995 463.715 322.908 463.285 323.84 462.867ZM306.557 473.244C306.934 472.942 307.321 472.643 307.71 472.344C307.321 472.643 306.937 472.942 306.557 473.244ZM308.723 471.58C309.125 471.284 309.533 470.994 309.945 470.704C309.533 470.994 309.125 471.287 308.723 471.58ZM310.995 469.975C311.422 469.685 311.858 469.402 312.294 469.121C311.858 469.402 311.422 469.685 310.995 469.975ZM313.372 468.43C313.827 468.146 314.295 467.866 314.762 467.588C314.298 467.866 313.83 468.143 313.372 468.43ZM315.85 466.94C316.345 466.653 316.853 466.376 317.361 466.099C316.856 466.379 316.345 466.656 315.85 466.94ZM318.424 465.516C318.994 465.214 319.577 464.921 320.157 464.631C319.577 464.924 318.994 465.214 318.424 465.516ZM294.179 487.205C293.861 487.757 293.569 488.314 293.282 488.875C293.569 488.314 293.865 487.757 294.179 487.205ZM448.082 486.996C448.045 486.915 448.011 486.837 447.973 486.756C448.011 486.837 448.048 486.918 448.082 486.996ZM448.88 488.9C448.877 488.891 448.874 488.885 448.871 488.875C448.871 488.885 448.877 488.894 448.88 488.9ZM444.751 481.181C444.636 481.016 444.517 480.851 444.396 480.686C444.514 480.851 444.636 481.016 444.751 481.181ZM443.421 479.393C443.29 479.227 443.165 479.062 443.031 478.897C443.165 479.062 443.293 479.227 443.421 479.393Z" fill="#101010"/>
<path d="M441.594 477.202C428.272 462.328 403.442 453.225 375.174 452.854C334.638 452.322 299.224 470.063 291.281 493.581C290.508 495.871 289.994 498.215 289.763 500.605C288.91 509.399 292.066 518.072 298.891 525.691C312.213 540.565 337.043 549.668 365.311 550.038C409.793 550.624 448.107 529.216 450.722 502.288C451.576 493.494 448.419 484.821 441.594 477.202Z" fill="white"/>
<path d="M420.912 483.709C411.641 473.356 393.607 466.765 373.85 466.504C345.118 466.127 320.029 478.61 314.438 495.158C313.899 496.756 313.541 498.392 313.379 500.057C312.787 506.149 314.987 512.169 319.736 517.473C329.007 527.826 347.041 534.417 366.798 534.678C398.306 535.093 425.433 520.047 427.266 501.122C427.861 495.033 425.664 489.009 420.912 483.709Z" fill="white"/>
<path d="M373.918 461.312C357.564 461.097 341.774 464.836 329.465 471.842C316.794 479.053 309.246 488.894 308.212 499.558C307.476 507.134 310.125 514.528 315.868 520.942C326.233 532.512 345.249 539.593 366.732 539.873C383.086 540.088 398.877 536.349 411.186 529.343C421.435 523.51 428.335 515.956 431.142 507.635C431.806 505.672 432.242 503.665 432.439 501.627C433.174 494.051 430.525 486.657 424.782 480.243C414.417 468.669 395.402 461.592 373.918 461.312ZM366.801 534.681C347.044 534.42 329.01 527.829 319.739 517.477C314.99 512.173 312.793 506.152 313.382 500.06C313.544 498.392 313.902 496.76 314.441 495.161C320.029 478.613 345.118 466.127 373.853 466.507C393.61 466.765 411.644 473.359 420.915 483.712C425.664 489.012 427.861 495.036 427.272 501.129C425.436 520.05 398.306 535.096 366.801 534.681Z" fill="#101010"/>
<path d="M370.656 486.236L370.493 486.23C369.509 479.352 365.585 476.024 360.755 475.806C355.847 475.581 351.575 478.445 348.776 482.543C346.991 484.955 345.679 487.623 344.597 490.988L336.339 490.611L335.152 496.953L342.964 497.308C342.771 498.212 342.584 499.159 342.397 500.15C342.123 501.608 341.871 503.089 341.64 504.553L333.796 504.198L332.609 510.533L340.761 510.904C340.437 513.696 340.247 516.121 340.235 517.773L393.526 520.197C394.065 518.52 394.719 516.236 395.408 513.391L402.501 513.712L403.688 507.377L396.792 507.062C396.891 506.557 396.991 506.046 397.088 505.519C397.468 503.484 397.767 501.59 397.998 499.81L405.044 500.131L406.231 493.79L398.54 493.441C398.705 488.205 398.01 484.397 396.602 481.661C394.564 477.791 391.167 475.12 386.259 474.896C379.253 474.575 373.632 479.446 370.656 486.236ZM350.886 504.675C350.939 503.509 351.098 501.808 351.649 498.866C352.802 492.712 355.626 489.33 359.733 489.517C363.756 489.701 365.698 493.656 364.361 500.792L363.525 505.251L350.886 504.675ZM388.739 501.088C388.306 503.407 388.004 505.011 387.592 506.342L372.295 505.647L373.164 501.01C374.432 494.235 377.627 488.891 383.102 489.14C388.817 489.402 389.892 494.937 388.739 501.088Z" fill="#101010"/>
<path d="M499.092 341.127C499.092 341.055 499.099 340.983 499.099 340.912C499.099 340.722 499.086 340.532 499.083 340.342L499.077 339.98H499.071C498.504 326.141 485.319 313.364 461.785 303.915C438.475 294.557 407.537 289.403 374.669 289.403C341.805 289.403 310.867 294.557 287.554 303.915C263.64 313.517 250.408 326.555 250.249 340.656H250.243V340.884C250.243 340.893 250.243 340.906 250.243 340.915C250.243 340.924 250.243 340.934 250.243 340.94L250.134 379.214C250.134 406.229 304.606 428.127 374.616 428.127C444.629 428.127 499.616 407.999 499.616 380.984L499.092 341.127Z" fill="#101010"/>
<path d="M459.852 308.736C437.141 299.618 406.891 294.598 374.672 294.598C342.453 294.598 312.204 299.618 289.492 308.736C267.85 317.424 255.438 329.154 255.438 340.912C255.438 352.673 267.85 364.399 289.492 373.09C312.204 382.209 342.453 387.229 374.672 387.229C406.891 387.229 437.141 382.209 459.852 373.09C481.495 364.402 493.907 352.673 493.907 340.912C493.907 329.154 481.495 317.424 459.852 308.736Z" fill="white"/>
<path d="M415.252 287.324C413.897 287.324 412.8 286.224 412.8 284.872V110.8C412.8 109.445 413.9 108.348 415.252 108.348C416.605 108.348 417.705 109.448 417.705 110.8V284.872C417.705 286.224 416.608 287.324 415.252 287.324ZM371.045 173.02C369.689 173.02 368.593 171.92 368.593 170.567V63.1962C368.593 61.8406 369.693 60.7437 371.045 60.7437C372.401 60.7437 373.498 61.8438 373.498 63.1962V170.567C373.498 171.92 372.401 173.02 371.045 173.02Z" fill="#101010"/>
<path d="M428.752 178.975C421.79 157.429 409.905 138.386 395.28 125.356C380.783 112.443 365.227 106.88 351.316 109.601H351.31L333.195 112.271C332.176 112.424 331.163 112.617 330.157 112.851C314.955 116.394 303.796 128.641 298.735 147.342C293.921 165.136 295.142 186.925 302.172 208.692C309.206 230.459 321.247 249.727 336.081 262.943C351.668 276.829 368.627 282.529 383.828 278.985C384.832 278.752 385.819 278.477 386.789 278.166L402.382 273.173C402.519 273.083 402.644 272.993 402.778 272.899C412.629 270.462 420.831 263.89 426.512 253.846C437.045 235.224 437.883 207.233 428.752 178.975ZM373.326 117.26C373.744 117.432 374.165 117.603 374.582 117.787C374.161 117.6 373.744 117.429 373.326 117.26ZM375.645 118.27C376.059 118.463 376.474 118.66 376.888 118.865C376.474 118.66 376.059 118.463 375.645 118.27ZM366.227 115.023C366.701 115.129 367.175 115.232 367.652 115.353C367.178 115.232 366.704 115.129 366.227 115.023ZM368.639 115.637C369.079 115.761 369.518 115.886 369.961 116.026C369.521 115.886 369.079 115.761 368.639 115.637ZM370.992 116.382C371.419 116.528 371.843 116.678 372.27 116.837C371.846 116.674 371.419 116.528 370.992 116.382ZM377.957 119.414C378.368 119.629 378.78 119.85 379.188 120.077C378.777 119.85 378.365 119.632 377.957 119.414ZM380.254 120.688C380.662 120.925 381.07 121.171 381.478 121.421C381.07 121.168 380.665 120.925 380.254 120.688ZM418.06 257.062C418.02 257.112 417.979 257.165 417.939 257.215C417.979 257.168 418.02 257.115 418.06 257.062ZM416.48 258.882C416.459 258.904 416.437 258.926 416.415 258.951C416.437 258.926 416.459 258.904 416.48 258.882ZM417.119 163.827C417.406 164.422 417.683 165.023 417.961 165.625C417.683 165.023 417.406 164.422 417.119 163.827ZM412.23 154.624C412.544 155.164 412.859 155.706 413.168 156.254C412.856 155.706 412.544 155.164 412.23 154.624ZM413.925 157.613C414.23 158.171 414.533 158.732 414.832 159.296C414.53 158.732 414.23 158.171 413.925 157.613ZM415.555 160.682C415.851 161.256 416.138 161.835 416.427 162.418C416.141 161.835 415.851 161.256 415.555 160.682ZM423.81 180.574C423.433 179.405 423.04 178.246 422.632 177.096C423.04 178.246 423.433 179.402 423.81 180.574ZM422.211 175.943C421.937 175.186 421.66 174.425 421.373 173.677C421.66 174.428 421.934 175.186 422.211 175.943ZM420.84 172.337C420.572 171.664 420.307 170.991 420.033 170.327C420.307 170.991 420.572 171.664 420.84 172.337ZM419.431 168.925C419.16 168.295 418.892 167.663 418.612 167.043C418.892 167.663 419.16 168.295 419.431 168.925ZM411.441 153.297C411.12 152.764 410.796 152.237 410.469 151.717C410.796 152.237 411.12 152.764 411.441 153.297ZM409.656 150.424C409.322 149.906 408.986 149.395 408.649 148.884C408.986 149.395 409.325 149.906 409.656 150.424ZM407.817 147.644C407.471 147.136 407.119 146.634 406.767 146.136C407.119 146.634 407.471 147.136 407.817 147.644ZM405.929 144.952C405.564 144.45 405.196 143.957 404.825 143.465C405.193 143.957 405.564 144.45 405.929 144.952ZM403.987 142.353C403.601 141.848 403.205 141.358 402.812 140.866C403.205 141.358 403.601 141.848 403.987 142.353ZM401.999 139.847C401.566 139.317 401.126 138.806 400.69 138.292C401.13 138.806 401.566 139.32 401.999 139.847ZM399.97 137.441C399.356 136.737 398.736 136.048 398.11 135.369C398.733 136.048 399.356 136.737 399.97 137.441ZM397.898 135.138C397.203 134.39 396.502 133.661 395.798 132.948C396.505 133.661 397.203 134.39 397.898 135.138ZM382.538 122.084C382.946 122.346 383.351 122.614 383.76 122.888C383.354 122.614 382.946 122.346 382.538 122.084ZM384.807 123.605C385.215 123.892 385.62 124.185 386.025 124.484C385.62 124.185 385.215 123.889 384.807 123.605ZM387.053 125.244C387.465 125.556 387.873 125.88 388.278 126.204C387.873 125.877 387.465 125.556 387.053 125.244ZM389.282 127.002C389.696 127.341 390.11 127.697 390.525 128.049C390.11 127.697 389.696 127.341 389.282 127.002ZM391.482 128.872C391.912 129.249 392.335 129.644 392.762 130.034C392.335 129.644 391.912 129.252 391.482 128.872ZM393.657 130.857C394.124 131.299 394.589 131.757 395.05 132.215C394.589 131.757 394.124 131.299 393.657 130.857ZM365.352 114.823C364.728 114.699 364.105 114.599 363.482 114.509C364.102 114.599 364.725 114.699 365.352 114.823ZM414.785 260.571C414.851 260.512 414.913 260.453 414.978 260.391C414.916 260.453 414.851 260.512 414.785 260.571ZM413.236 261.933C413.243 261.927 413.249 261.921 413.255 261.918C413.249 261.924 413.243 261.93 413.236 261.933ZM419.229 255.554C419.347 255.392 419.466 255.227 419.584 255.059C419.469 255.224 419.35 255.392 419.229 255.554ZM420.5 253.722C420.616 253.547 420.731 253.373 420.843 253.195C420.731 253.373 420.613 253.547 420.5 253.722Z" fill="#101010"/>
<path d="M421.99 251.291C431.819 233.912 432.498 207.473 423.81 180.574C411.345 141.997 383.208 114.119 358.384 114.119C355.965 114.119 353.582 114.384 351.244 114.929C342.64 116.933 335.432 122.698 330.397 131.601C320.568 148.984 319.888 175.419 328.577 202.319C342.254 244.65 374.794 274.102 401.142 267.963C409.746 265.959 416.957 260.194 421.99 251.291Z" fill="white"/>
<path d="M409.21 233.778C416.05 221.68 416.527 202.487 410.453 183.687C401.619 156.345 381.765 136.566 364.298 136.566C362.612 136.566 360.948 136.75 359.319 137.13C353.357 138.52 348.356 142.527 344.85 148.725C338.01 160.823 337.533 180.016 343.606 198.819C353.295 228.804 376.227 249.692 394.744 245.376C400.703 243.983 405.704 239.973 409.21 233.778Z" fill="white"/>
<path d="M415.396 182.088C410.369 166.522 401.775 152.761 391.198 143.34C380.313 133.643 368.574 129.641 358.137 132.072C350.724 133.798 344.566 138.672 340.328 146.167C332.681 159.688 332.057 179.969 338.664 200.412C343.694 215.978 352.285 229.739 362.862 239.159C371.668 247.003 381.033 251.123 389.814 251.123C391.887 251.123 393.928 250.892 395.922 250.428C403.336 248.701 409.494 243.824 413.732 236.33C421.379 222.811 421.999 202.531 415.396 182.088ZM343.603 198.816C337.53 180.016 338.006 160.82 344.847 148.722C348.352 142.527 353.354 138.516 359.315 137.127C360.945 136.746 362.609 136.563 364.295 136.563C381.762 136.563 401.619 156.338 410.45 183.684C416.524 202.484 416.047 221.68 409.207 233.774C405.704 239.97 400.699 243.98 394.738 245.37C376.224 249.689 353.292 228.801 343.603 198.816Z" fill="#101010"/>
<path d="M390.737 186.968L390.693 186.812C396.894 183.677 398.792 178.897 397.455 174.251C396.097 169.526 392.017 166.398 387.24 165.058C384.383 164.138 381.435 163.749 377.904 163.799L375.617 155.852L369.228 156.756L371.391 164.269C370.472 164.378 369.518 164.5 368.515 164.643C367.044 164.852 365.56 165.086 364.102 165.332L361.93 157.787L355.548 158.691L357.804 166.532C355.055 167.118 352.696 167.713 351.129 168.23L365.881 219.496C367.642 219.471 370.014 219.359 372.93 219.103L374.894 225.925L381.276 225.021L379.365 218.386C379.877 218.318 380.394 218.249 380.924 218.174C382.974 217.885 384.863 217.561 386.623 217.212L388.574 223.989L394.962 223.086L392.834 215.688C397.845 214.17 401.232 212.291 403.376 210.082C406.393 206.912 407.836 202.839 406.477 198.118C404.536 191.384 398.122 187.619 390.737 186.968ZM366.941 174.135C368.063 173.814 369.727 173.419 372.69 172.998C378.889 172.122 382.996 173.715 384.133 177.666C385.249 181.537 382.12 184.64 374.934 185.656L370.444 186.292L366.941 174.135ZM382.447 208.854C380.11 209.184 378.493 209.415 377.103 209.449L372.868 194.734L377.539 194.073C384.364 193.107 390.447 194.425 391.965 199.692C393.548 205.189 388.646 207.978 382.447 208.854ZM298.882 361.975C297.526 361.975 296.429 360.875 296.429 359.522V252.151C296.429 250.796 297.529 249.699 298.882 249.699C300.237 249.699 301.334 250.799 301.334 252.151V359.522C301.334 360.878 300.237 361.975 298.882 361.975ZM298.882 101.854C297.526 101.854 296.429 100.753 296.429 99.401V33.0089C296.429 31.6533 297.529 30.5564 298.882 30.5564C300.237 30.5564 301.334 31.6565 301.334 33.0089V99.401C301.334 100.753 300.237 101.854 298.882 101.854ZM448.596 361.975C447.241 361.975 446.144 360.875 446.144 359.522V252.151C446.144 250.796 447.244 249.699 448.596 249.699C449.949 249.699 451.049 250.799 451.049 252.151V359.522C451.052 360.878 449.952 361.975 448.596 361.975ZM448.596 227.396C447.241 227.396 446.144 226.295 446.144 224.943V27.06C446.144 25.7044 447.244 24.6074 448.596 24.6074C449.949 24.6074 451.049 25.7075 451.049 27.06V224.943C451.052 226.295 449.952 227.396 448.596 227.396ZM476.948 281.079C475.593 281.079 474.496 279.979 474.496 278.627V171.256C474.496 169.9 475.596 168.803 476.948 168.803C478.301 168.803 479.401 169.903 479.401 171.256V278.627C479.404 279.983 478.304 281.079 476.948 281.079ZM476.948 140.38C475.593 140.38 474.496 139.28 474.496 137.927V78.1636C474.496 76.8081 475.596 75.7111 476.948 75.7111C478.301 75.7111 479.401 76.8112 479.401 78.1636V137.924C479.404 139.28 478.304 140.38 476.948 140.38ZM260.888 251.067C259.532 251.067 258.436 249.967 258.436 248.614V86.6929C258.436 85.3373 259.536 84.2404 260.888 84.2404C262.241 84.2404 263.341 85.3404 263.341 86.6929V248.611C263.344 249.967 262.244 251.067 260.888 251.067ZM260.888 304.838C259.532 304.838 258.436 303.738 258.436 302.385V272.07C258.436 270.715 259.536 269.618 260.888 269.618C262.241 269.618 263.341 270.718 263.341 272.07V302.385C263.344 303.738 262.244 304.838 260.888 304.838ZM333.235 278.667C331.88 278.667 330.783 277.567 330.783 276.215V79.0424C330.783 77.6868 331.883 76.5899 333.235 76.5899C334.591 76.5899 335.688 77.69 335.688 79.0424V276.215C335.688 277.571 334.591 278.667 333.235 278.667ZM333.235 372.729C331.88 372.729 330.783 371.629 330.783 370.276V307.571C330.783 306.215 331.883 305.118 333.235 305.118C334.591 305.118 335.688 306.218 335.688 307.571V370.276C335.688 371.629 334.591 372.729 333.235 372.729ZM333.235 46.4089C331.88 46.4089 330.783 45.3088 330.783 43.9564V10.1573C330.783 8.80174 331.883 7.70481 333.235 7.70481C334.591 7.70481 335.688 8.80485 335.688 10.1573V43.9532C335.688 45.3088 334.591 46.4089 333.235 46.4089ZM388.773 375.132C387.418 375.132 386.321 374.032 386.321 372.679V238.994C386.321 237.639 387.421 236.542 388.773 236.542C390.126 236.542 391.226 237.642 391.226 238.994V372.676C391.226 374.032 390.129 375.132 388.773 375.132ZM388.773 136.756C387.418 136.756 386.321 135.656 386.321 134.303V33.2582C386.321 31.9026 387.421 30.8057 388.773 30.8057C390.126 30.8057 391.226 31.9058 391.226 33.2582V134.3C391.226 135.656 390.129 136.756 388.773 136.756Z" fill="#101010"/>
</svg>
